<mxfile host="app.diagrams.net" agent="Mozilla/5.0 (Windows NT 10.0; Win64; x64) AppleWebKit/537.36 (KHTML, like Gecko) Chrome/132.0.0.0 Safari/537.36" version="26.0.11">
  <diagram id="R2lEEEUBdFMjLlhIrx00" name="Page-1">
    <mxGraphModel dx="2600" dy="1088" grid="1" gridSize="10" guides="1" tooltips="1" connect="1" arrows="1" fold="1" page="1" pageScale="1" pageWidth="850" pageHeight="1100" math="0" shadow="0" extFonts="Permanent Marker^https://fonts.googleapis.com/css?family=Permanent+Marker">
      <root>
        <mxCell id="0" />
        <mxCell id="1" parent="0" />
        <mxCell id="OO_mj3jUhyiRYIfF3Iy0-61" style="edgeStyle=orthogonalEdgeStyle;rounded=0;orthogonalLoop=1;jettySize=auto;html=1;exitX=1;exitY=0.5;exitDx=0;exitDy=0;entryX=0;entryY=0.5;entryDx=0;entryDy=0;endArrow=none;startFill=0;" parent="1" source="b0n5neDOJTrzBqEPWJX2-1" target="b0n5neDOJTrzBqEPWJX2-7" edge="1">
          <mxGeometry relative="1" as="geometry" />
        </mxCell>
        <mxCell id="OO_mj3jUhyiRYIfF3Iy0-62" style="edgeStyle=orthogonalEdgeStyle;rounded=0;orthogonalLoop=1;jettySize=auto;html=1;exitX=1;exitY=1;exitDx=0;exitDy=0;entryX=0;entryY=0;entryDx=0;entryDy=0;endArrow=none;startFill=0;" parent="1" source="b0n5neDOJTrzBqEPWJX2-1" target="b0n5neDOJTrzBqEPWJX2-5" edge="1">
          <mxGeometry relative="1" as="geometry" />
        </mxCell>
        <mxCell id="OO_mj3jUhyiRYIfF3Iy0-63" style="edgeStyle=orthogonalEdgeStyle;rounded=0;orthogonalLoop=1;jettySize=auto;html=1;exitX=0.75;exitY=1;exitDx=0;exitDy=0;entryX=0;entryY=0;entryDx=0;entryDy=0;endArrow=none;startFill=0;" parent="1" source="b0n5neDOJTrzBqEPWJX2-1" target="b0n5neDOJTrzBqEPWJX2-6" edge="1">
          <mxGeometry relative="1" as="geometry" />
        </mxCell>
        <mxCell id="OO_mj3jUhyiRYIfF3Iy0-64" style="edgeStyle=orthogonalEdgeStyle;rounded=0;orthogonalLoop=1;jettySize=auto;html=1;exitX=0.25;exitY=1;exitDx=0;exitDy=0;entryX=0.5;entryY=0;entryDx=0;entryDy=0;endArrow=none;startFill=0;" parent="1" source="b0n5neDOJTrzBqEPWJX2-1" target="b0n5neDOJTrzBqEPWJX2-4" edge="1">
          <mxGeometry relative="1" as="geometry" />
        </mxCell>
        <mxCell id="b0n5neDOJTrzBqEPWJX2-1" value="Departments" style="whiteSpace=wrap;html=1;align=center;" parent="1" vertex="1">
          <mxGeometry x="155" y="250" width="100" height="40" as="geometry" />
        </mxCell>
        <mxCell id="OO_mj3jUhyiRYIfF3Iy0-67" style="edgeStyle=orthogonalEdgeStyle;rounded=0;orthogonalLoop=1;jettySize=auto;html=1;exitX=0;exitY=1;exitDx=0;exitDy=0;entryX=1;entryY=0.5;entryDx=0;entryDy=0;endArrow=none;startFill=0;" parent="1" source="b0n5neDOJTrzBqEPWJX2-2" target="OO_mj3jUhyiRYIfF3Iy0-13" edge="1">
          <mxGeometry relative="1" as="geometry" />
        </mxCell>
        <mxCell id="OO_mj3jUhyiRYIfF3Iy0-68" style="edgeStyle=orthogonalEdgeStyle;rounded=0;orthogonalLoop=1;jettySize=auto;html=1;exitX=0;exitY=0.5;exitDx=0;exitDy=0;endArrow=none;startFill=0;" parent="1" source="b0n5neDOJTrzBqEPWJX2-2" target="b0n5neDOJTrzBqEPWJX2-10" edge="1">
          <mxGeometry relative="1" as="geometry" />
        </mxCell>
        <mxCell id="OO_mj3jUhyiRYIfF3Iy0-69" style="edgeStyle=orthogonalEdgeStyle;rounded=0;orthogonalLoop=1;jettySize=auto;html=1;exitX=0;exitY=0.25;exitDx=0;exitDy=0;entryX=1;entryY=0.5;entryDx=0;entryDy=0;endArrow=none;startFill=0;" parent="1" source="b0n5neDOJTrzBqEPWJX2-2" target="b0n5neDOJTrzBqEPWJX2-11" edge="1">
          <mxGeometry relative="1" as="geometry" />
        </mxCell>
        <mxCell id="OO_mj3jUhyiRYIfF3Iy0-70" style="edgeStyle=orthogonalEdgeStyle;rounded=0;orthogonalLoop=1;jettySize=auto;html=1;exitX=0;exitY=0;exitDx=0;exitDy=0;entryX=1;entryY=0.5;entryDx=0;entryDy=0;endArrow=none;startFill=0;" parent="1" source="b0n5neDOJTrzBqEPWJX2-2" target="b0n5neDOJTrzBqEPWJX2-15" edge="1">
          <mxGeometry relative="1" as="geometry" />
        </mxCell>
        <mxCell id="OO_mj3jUhyiRYIfF3Iy0-71" style="edgeStyle=orthogonalEdgeStyle;rounded=0;orthogonalLoop=1;jettySize=auto;html=1;exitX=0.25;exitY=0;exitDx=0;exitDy=0;entryX=0.5;entryY=1;entryDx=0;entryDy=0;endArrow=none;startFill=0;" parent="1" source="b0n5neDOJTrzBqEPWJX2-2" target="b0n5neDOJTrzBqEPWJX2-16" edge="1">
          <mxGeometry relative="1" as="geometry" />
        </mxCell>
        <mxCell id="OO_mj3jUhyiRYIfF3Iy0-72" style="edgeStyle=orthogonalEdgeStyle;rounded=0;orthogonalLoop=1;jettySize=auto;html=1;exitX=0.5;exitY=0;exitDx=0;exitDy=0;entryX=0;entryY=1;entryDx=0;entryDy=0;endArrow=none;startFill=0;" parent="1" source="b0n5neDOJTrzBqEPWJX2-2" target="b0n5neDOJTrzBqEPWJX2-14" edge="1">
          <mxGeometry relative="1" as="geometry" />
        </mxCell>
        <mxCell id="b0n5neDOJTrzBqEPWJX2-2" value="Instructors" style="whiteSpace=wrap;html=1;align=center;" parent="1" vertex="1">
          <mxGeometry x="-130" y="250" width="100" height="40" as="geometry" />
        </mxCell>
        <mxCell id="b0n5neDOJTrzBqEPWJX2-4" value="Start Date" style="ellipse;whiteSpace=wrap;html=1;align=center;" parent="1" vertex="1">
          <mxGeometry x="180" y="375" width="100" height="40" as="geometry" />
        </mxCell>
        <mxCell id="b0n5neDOJTrzBqEPWJX2-5" value="Office_Phone" style="ellipse;whiteSpace=wrap;html=1;align=center;" parent="1" vertex="1">
          <mxGeometry x="320" y="300" width="100" height="40" as="geometry" />
        </mxCell>
        <mxCell id="b0n5neDOJTrzBqEPWJX2-6" value="Office_Number" style="ellipse;whiteSpace=wrap;html=1;align=center;" parent="1" vertex="1">
          <mxGeometry x="290" y="360" width="100" height="40" as="geometry" />
        </mxCell>
        <mxCell id="b0n5neDOJTrzBqEPWJX2-7" value="Dep_ID" style="ellipse;whiteSpace=wrap;html=1;align=center;" parent="1" vertex="1">
          <mxGeometry x="325" y="235" width="100" height="40" as="geometry" />
        </mxCell>
        <mxCell id="b0n5neDOJTrzBqEPWJX2-8" value="Name" style="ellipse;whiteSpace=wrap;html=1;align=center;" parent="1" vertex="1">
          <mxGeometry x="260" y="190" width="100" height="40" as="geometry" />
        </mxCell>
        <mxCell id="OO_mj3jUhyiRYIfF3Iy0-57" style="edgeStyle=orthogonalEdgeStyle;rounded=0;orthogonalLoop=1;jettySize=auto;html=1;exitX=0;exitY=0.5;exitDx=0;exitDy=0;entryX=1;entryY=0.5;entryDx=0;entryDy=0;endArrow=none;endFill=1;startFill=0;startArrow=none;" parent="1" source="b0n5neDOJTrzBqEPWJX2-9" target="b0n5neDOJTrzBqEPWJX2-2" edge="1">
          <mxGeometry relative="1" as="geometry" />
        </mxCell>
        <mxCell id="OO_mj3jUhyiRYIfF3Iy0-65" style="edgeStyle=orthogonalEdgeStyle;rounded=0;orthogonalLoop=1;jettySize=auto;html=1;exitX=0.5;exitY=1;exitDx=0;exitDy=0;entryX=0.5;entryY=0;entryDx=0;entryDy=0;endArrow=none;startFill=0;" parent="1" source="b0n5neDOJTrzBqEPWJX2-9" target="OO_mj3jUhyiRYIfF3Iy0-34" edge="1">
          <mxGeometry relative="1" as="geometry" />
        </mxCell>
        <mxCell id="F-f_jB7JB1qZvQwXc1-d-1" style="edgeStyle=orthogonalEdgeStyle;rounded=0;orthogonalLoop=1;jettySize=auto;html=1;exitX=1;exitY=0.5;exitDx=0;exitDy=0;entryX=0;entryY=0.5;entryDx=0;entryDy=0;" edge="1" parent="1" source="b0n5neDOJTrzBqEPWJX2-9" target="b0n5neDOJTrzBqEPWJX2-1">
          <mxGeometry relative="1" as="geometry" />
        </mxCell>
        <mxCell id="b0n5neDOJTrzBqEPWJX2-9" value="Manage" style="shape=rhombus;perimeter=rhombusPerimeter;whiteSpace=wrap;html=1;align=center;" parent="1" vertex="1">
          <mxGeometry x="25" y="245" width="100" height="50" as="geometry" />
        </mxCell>
        <mxCell id="b0n5neDOJTrzBqEPWJX2-10" value="Birthday" style="ellipse;whiteSpace=wrap;html=1;align=center;" parent="1" vertex="1">
          <mxGeometry x="-270" y="290" width="100" height="40" as="geometry" />
        </mxCell>
        <mxCell id="b0n5neDOJTrzBqEPWJX2-11" value="Ins_ID" style="ellipse;whiteSpace=wrap;html=1;align=center;" parent="1" vertex="1">
          <mxGeometry x="-270" y="235" width="100" height="40" as="geometry" />
        </mxCell>
        <mxCell id="b0n5neDOJTrzBqEPWJX2-12" value="Creds_theory" style="ellipse;whiteSpace=wrap;html=1;align=center;" parent="1" vertex="1">
          <mxGeometry x="-65" y="590" width="100" height="40" as="geometry" />
        </mxCell>
        <mxCell id="b0n5neDOJTrzBqEPWJX2-13" value="Training&amp;nbsp;" style="ellipse;whiteSpace=wrap;html=1;align=center;" parent="1" vertex="1">
          <mxGeometry x="-170" y="360" width="100" height="40" as="geometry" />
        </mxCell>
        <mxCell id="b0n5neDOJTrzBqEPWJX2-14" value="Name" style="ellipse;whiteSpace=wrap;html=1;align=center;" parent="1" vertex="1">
          <mxGeometry x="-40" y="175" width="100" height="40" as="geometry" />
        </mxCell>
        <mxCell id="b0n5neDOJTrzBqEPWJX2-15" value="Sex" style="ellipse;whiteSpace=wrap;html=1;align=center;" parent="1" vertex="1">
          <mxGeometry x="-260" y="195" width="100" height="40" as="geometry" />
        </mxCell>
        <mxCell id="b0n5neDOJTrzBqEPWJX2-16" value="Qualifcation" style="ellipse;whiteSpace=wrap;html=1;align=center;" parent="1" vertex="1">
          <mxGeometry x="-170" y="165" width="100" height="40" as="geometry" />
        </mxCell>
        <mxCell id="b0n5neDOJTrzBqEPWJX2-17" value="Current_Address" style="ellipse;whiteSpace=wrap;html=1;align=center;" parent="1" vertex="1">
          <mxGeometry x="-550" y="575" width="100" height="40" as="geometry" />
        </mxCell>
        <mxCell id="OO_mj3jUhyiRYIfF3Iy0-22" style="edgeStyle=orthogonalEdgeStyle;rounded=0;orthogonalLoop=1;jettySize=auto;html=1;exitX=0.25;exitY=0;exitDx=0;exitDy=0;entryX=1;entryY=1;entryDx=0;entryDy=0;endArrow=none;startFill=0;" parent="1" source="OO_mj3jUhyiRYIfF3Iy0-8" target="OO_mj3jUhyiRYIfF3Iy0-19" edge="1">
          <mxGeometry relative="1" as="geometry" />
        </mxCell>
        <mxCell id="OO_mj3jUhyiRYIfF3Iy0-23" style="edgeStyle=orthogonalEdgeStyle;rounded=0;orthogonalLoop=1;jettySize=auto;html=1;exitX=0;exitY=0.5;exitDx=0;exitDy=0;entryX=1;entryY=0.5;entryDx=0;entryDy=0;endArrow=none;startFill=0;" parent="1" source="OO_mj3jUhyiRYIfF3Iy0-8" target="b0n5neDOJTrzBqEPWJX2-17" edge="1">
          <mxGeometry relative="1" as="geometry" />
        </mxCell>
        <mxCell id="OO_mj3jUhyiRYIfF3Iy0-24" style="edgeStyle=orthogonalEdgeStyle;rounded=0;orthogonalLoop=1;jettySize=auto;html=1;exitX=0;exitY=1;exitDx=0;exitDy=0;entryX=1;entryY=0;entryDx=0;entryDy=0;endArrow=none;startFill=0;" parent="1" source="OO_mj3jUhyiRYIfF3Iy0-8" target="OO_mj3jUhyiRYIfF3Iy0-18" edge="1">
          <mxGeometry relative="1" as="geometry" />
        </mxCell>
        <mxCell id="OO_mj3jUhyiRYIfF3Iy0-25" style="edgeStyle=orthogonalEdgeStyle;rounded=0;orthogonalLoop=1;jettySize=auto;html=1;exitX=0.25;exitY=1;exitDx=0;exitDy=0;entryX=0.5;entryY=0;entryDx=0;entryDy=0;endArrow=none;startFill=0;" parent="1" source="OO_mj3jUhyiRYIfF3Iy0-8" target="OO_mj3jUhyiRYIfF3Iy0-15" edge="1">
          <mxGeometry relative="1" as="geometry" />
        </mxCell>
        <mxCell id="OO_mj3jUhyiRYIfF3Iy0-26" style="edgeStyle=orthogonalEdgeStyle;rounded=0;orthogonalLoop=1;jettySize=auto;html=1;exitX=0.75;exitY=1;exitDx=0;exitDy=0;entryX=0;entryY=0;entryDx=0;entryDy=0;endArrow=none;startFill=0;" parent="1" source="OO_mj3jUhyiRYIfF3Iy0-8" target="OO_mj3jUhyiRYIfF3Iy0-20" edge="1">
          <mxGeometry relative="1" as="geometry" />
        </mxCell>
        <mxCell id="OO_mj3jUhyiRYIfF3Iy0-27" style="edgeStyle=orthogonalEdgeStyle;rounded=0;orthogonalLoop=1;jettySize=auto;html=1;exitX=1;exitY=0.75;exitDx=0;exitDy=0;entryX=0;entryY=0;entryDx=0;entryDy=0;endArrow=none;startFill=0;" parent="1" source="OO_mj3jUhyiRYIfF3Iy0-8" target="OO_mj3jUhyiRYIfF3Iy0-17" edge="1">
          <mxGeometry relative="1" as="geometry" />
        </mxCell>
        <mxCell id="OO_mj3jUhyiRYIfF3Iy0-28" style="edgeStyle=orthogonalEdgeStyle;rounded=0;orthogonalLoop=1;jettySize=auto;html=1;exitX=1;exitY=0;exitDx=0;exitDy=0;entryX=0;entryY=0.5;entryDx=0;entryDy=0;endArrow=none;startFill=0;" parent="1" source="OO_mj3jUhyiRYIfF3Iy0-8" target="OO_mj3jUhyiRYIfF3Iy0-14" edge="1">
          <mxGeometry relative="1" as="geometry" />
        </mxCell>
        <mxCell id="OO_mj3jUhyiRYIfF3Iy0-88" style="edgeStyle=orthogonalEdgeStyle;rounded=0;orthogonalLoop=1;jettySize=auto;html=1;exitX=0.5;exitY=1;exitDx=0;exitDy=0;entryX=0.5;entryY=0;entryDx=0;entryDy=0;endArrow=none;startFill=0;" parent="1" source="OO_mj3jUhyiRYIfF3Iy0-8" target="OO_mj3jUhyiRYIfF3Iy0-85" edge="1">
          <mxGeometry relative="1" as="geometry" />
        </mxCell>
        <mxCell id="OO_mj3jUhyiRYIfF3Iy0-8" value="Students" style="whiteSpace=wrap;html=1;align=center;" parent="1" vertex="1">
          <mxGeometry x="-370" y="570" width="100" height="40" as="geometry" />
        </mxCell>
        <mxCell id="OO_mj3jUhyiRYIfF3Iy0-73" style="edgeStyle=orthogonalEdgeStyle;rounded=0;orthogonalLoop=1;jettySize=auto;html=1;exitX=1;exitY=0.5;exitDx=0;exitDy=0;entryX=0;entryY=0.5;entryDx=0;entryDy=0;endArrow=none;startFill=0;" parent="1" source="OO_mj3jUhyiRYIfF3Iy0-9" target="OO_mj3jUhyiRYIfF3Iy0-32" edge="1">
          <mxGeometry relative="1" as="geometry" />
        </mxCell>
        <mxCell id="OO_mj3jUhyiRYIfF3Iy0-74" style="edgeStyle=orthogonalEdgeStyle;rounded=0;orthogonalLoop=1;jettySize=auto;html=1;exitX=0.75;exitY=0;exitDx=0;exitDy=0;entryX=0;entryY=1;entryDx=0;entryDy=0;endArrow=none;startFill=0;" parent="1" source="OO_mj3jUhyiRYIfF3Iy0-9" target="OO_mj3jUhyiRYIfF3Iy0-35" edge="1">
          <mxGeometry relative="1" as="geometry" />
        </mxCell>
        <mxCell id="OO_mj3jUhyiRYIfF3Iy0-76" style="edgeStyle=orthogonalEdgeStyle;rounded=0;orthogonalLoop=1;jettySize=auto;html=1;exitX=0;exitY=0;exitDx=0;exitDy=0;entryX=1;entryY=1;entryDx=0;entryDy=0;endArrow=none;startFill=0;" parent="1" source="OO_mj3jUhyiRYIfF3Iy0-9" target="OO_mj3jUhyiRYIfF3Iy0-30" edge="1">
          <mxGeometry relative="1" as="geometry" />
        </mxCell>
        <mxCell id="OO_mj3jUhyiRYIfF3Iy0-78" style="edgeStyle=orthogonalEdgeStyle;rounded=0;orthogonalLoop=1;jettySize=auto;html=1;exitX=0.25;exitY=1;exitDx=0;exitDy=0;entryX=0.5;entryY=0;entryDx=0;entryDy=0;endArrow=none;startFill=0;" parent="1" source="OO_mj3jUhyiRYIfF3Iy0-9" target="OO_mj3jUhyiRYIfF3Iy0-31" edge="1">
          <mxGeometry relative="1" as="geometry" />
        </mxCell>
        <mxCell id="OO_mj3jUhyiRYIfF3Iy0-9" value="Subjects" style="whiteSpace=wrap;html=1;align=center;" parent="1" vertex="1">
          <mxGeometry x="95" y="620" width="100" height="40" as="geometry" />
        </mxCell>
        <mxCell id="OO_mj3jUhyiRYIfF3Iy0-43" style="edgeStyle=orthogonalEdgeStyle;rounded=0;orthogonalLoop=1;jettySize=auto;html=1;exitX=0;exitY=0.5;exitDx=0;exitDy=0;entryX=1;entryY=0.5;entryDx=0;entryDy=0;endArrow=none;startFill=0;" parent="1" source="OO_mj3jUhyiRYIfF3Iy0-10" target="OO_mj3jUhyiRYIfF3Iy0-37" edge="1">
          <mxGeometry relative="1" as="geometry" />
        </mxCell>
        <mxCell id="OO_mj3jUhyiRYIfF3Iy0-44" style="edgeStyle=orthogonalEdgeStyle;rounded=0;orthogonalLoop=1;jettySize=auto;html=1;exitX=0.5;exitY=0;exitDx=0;exitDy=0;endArrow=none;startFill=0;" parent="1" source="OO_mj3jUhyiRYIfF3Iy0-10" target="OO_mj3jUhyiRYIfF3Iy0-36" edge="1">
          <mxGeometry relative="1" as="geometry" />
        </mxCell>
        <mxCell id="OO_mj3jUhyiRYIfF3Iy0-45" style="edgeStyle=orthogonalEdgeStyle;rounded=0;orthogonalLoop=1;jettySize=auto;html=1;exitX=0.5;exitY=1;exitDx=0;exitDy=0;entryX=0;entryY=0.5;entryDx=0;entryDy=0;endArrow=none;startFill=0;" parent="1" source="OO_mj3jUhyiRYIfF3Iy0-10" target="OO_mj3jUhyiRYIfF3Iy0-38" edge="1">
          <mxGeometry relative="1" as="geometry" />
        </mxCell>
        <mxCell id="OO_mj3jUhyiRYIfF3Iy0-10" value="Classes" style="whiteSpace=wrap;html=1;align=center;" parent="1" vertex="1">
          <mxGeometry x="-510" y="830" width="100" height="40" as="geometry" />
        </mxCell>
        <mxCell id="OO_mj3jUhyiRYIfF3Iy0-79" style="edgeStyle=orthogonalEdgeStyle;rounded=0;orthogonalLoop=1;jettySize=auto;html=1;exitX=0.25;exitY=0;exitDx=0;exitDy=0;entryX=0.5;entryY=1;entryDx=0;entryDy=0;endArrow=none;endFill=1;startFill=0;" parent="1" source="OO_mj3jUhyiRYIfF3Iy0-11" target="OO_mj3jUhyiRYIfF3Iy0-51" edge="1">
          <mxGeometry relative="1" as="geometry" />
        </mxCell>
        <mxCell id="OO_mj3jUhyiRYIfF3Iy0-80" style="edgeStyle=orthogonalEdgeStyle;rounded=0;orthogonalLoop=1;jettySize=auto;html=1;exitX=0.75;exitY=0;exitDx=0;exitDy=0;entryX=0;entryY=1;entryDx=0;entryDy=0;endArrow=none;endFill=1;startFill=0;" parent="1" source="OO_mj3jUhyiRYIfF3Iy0-11" target="OO_mj3jUhyiRYIfF3Iy0-52" edge="1">
          <mxGeometry relative="1" as="geometry" />
        </mxCell>
        <mxCell id="OO_mj3jUhyiRYIfF3Iy0-81" style="edgeStyle=orthogonalEdgeStyle;rounded=0;orthogonalLoop=1;jettySize=auto;html=1;exitX=1;exitY=0.5;exitDx=0;exitDy=0;entryX=0;entryY=0;entryDx=0;entryDy=0;endArrow=none;endFill=1;startFill=0;" parent="1" source="OO_mj3jUhyiRYIfF3Iy0-11" target="OO_mj3jUhyiRYIfF3Iy0-55" edge="1">
          <mxGeometry relative="1" as="geometry" />
        </mxCell>
        <mxCell id="OO_mj3jUhyiRYIfF3Iy0-84" style="edgeStyle=orthogonalEdgeStyle;rounded=0;orthogonalLoop=1;jettySize=auto;html=1;exitX=0;exitY=0.5;exitDx=0;exitDy=0;entryX=1;entryY=1;entryDx=0;entryDy=0;endArrow=none;endFill=1;startFill=0;" parent="1" source="OO_mj3jUhyiRYIfF3Iy0-11" target="OO_mj3jUhyiRYIfF3Iy0-54" edge="1">
          <mxGeometry relative="1" as="geometry" />
        </mxCell>
        <mxCell id="OO_mj3jUhyiRYIfF3Iy0-11" value="Grade reports" style="whiteSpace=wrap;html=1;align=center;" parent="1" vertex="1">
          <mxGeometry x="100" y="920" width="100" height="40" as="geometry" />
        </mxCell>
        <mxCell id="OO_mj3jUhyiRYIfF3Iy0-46" style="edgeStyle=orthogonalEdgeStyle;rounded=0;orthogonalLoop=1;jettySize=auto;html=1;exitX=0.25;exitY=0;exitDx=0;exitDy=0;endArrow=none;startFill=0;" parent="1" source="OO_mj3jUhyiRYIfF3Iy0-12" target="OO_mj3jUhyiRYIfF3Iy0-42" edge="1">
          <mxGeometry relative="1" as="geometry" />
        </mxCell>
        <mxCell id="OO_mj3jUhyiRYIfF3Iy0-47" style="edgeStyle=orthogonalEdgeStyle;rounded=0;orthogonalLoop=1;jettySize=auto;html=1;exitX=0.5;exitY=0;exitDx=0;exitDy=0;endArrow=none;startFill=0;" parent="1" source="OO_mj3jUhyiRYIfF3Iy0-12" target="OO_mj3jUhyiRYIfF3Iy0-41" edge="1">
          <mxGeometry relative="1" as="geometry" />
        </mxCell>
        <mxCell id="OO_mj3jUhyiRYIfF3Iy0-48" style="edgeStyle=orthogonalEdgeStyle;rounded=0;orthogonalLoop=1;jettySize=auto;html=1;exitX=1;exitY=0.75;exitDx=0;exitDy=0;endArrow=none;startFill=0;" parent="1" source="OO_mj3jUhyiRYIfF3Iy0-12" target="OO_mj3jUhyiRYIfF3Iy0-40" edge="1">
          <mxGeometry relative="1" as="geometry" />
        </mxCell>
        <mxCell id="OO_mj3jUhyiRYIfF3Iy0-49" style="edgeStyle=orthogonalEdgeStyle;rounded=0;orthogonalLoop=1;jettySize=auto;html=1;exitX=0;exitY=0.5;exitDx=0;exitDy=0;entryX=1;entryY=0;entryDx=0;entryDy=0;endArrow=none;startFill=0;" parent="1" source="OO_mj3jUhyiRYIfF3Iy0-12" target="OO_mj3jUhyiRYIfF3Iy0-39" edge="1">
          <mxGeometry relative="1" as="geometry" />
        </mxCell>
        <mxCell id="OO_mj3jUhyiRYIfF3Iy0-12" value="Sections" style="whiteSpace=wrap;html=1;align=center;" parent="1" vertex="1">
          <mxGeometry x="550" y="705" width="100" height="40" as="geometry" />
        </mxCell>
        <mxCell id="OO_mj3jUhyiRYIfF3Iy0-13" value="Year Of Graduation" style="ellipse;whiteSpace=wrap;html=1;align=center;" parent="1" vertex="1">
          <mxGeometry x="-280" y="340" width="100" height="40" as="geometry" />
        </mxCell>
        <mxCell id="OO_mj3jUhyiRYIfF3Iy0-14" value="Social_Secuirty_Num" style="ellipse;whiteSpace=wrap;html=1;align=center;" parent="1" vertex="1">
          <mxGeometry x="-240" y="500" width="120" height="60" as="geometry" />
        </mxCell>
        <mxCell id="OO_mj3jUhyiRYIfF3Iy0-15" value="Phone" style="ellipse;whiteSpace=wrap;html=1;align=center;" parent="1" vertex="1">
          <mxGeometry x="-495" y="675" width="100" height="40" as="geometry" />
        </mxCell>
        <mxCell id="OO_mj3jUhyiRYIfF3Iy0-16" value="Std_ID" style="ellipse;whiteSpace=wrap;html=1;align=center;" parent="1" vertex="1">
          <mxGeometry x="-380" y="465" width="100" height="40" as="geometry" />
        </mxCell>
        <mxCell id="OO_mj3jUhyiRYIfF3Iy0-17" value="Sex" style="ellipse;whiteSpace=wrap;html=1;align=center;" parent="1" vertex="1">
          <mxGeometry x="-230" y="585" width="100" height="40" as="geometry" />
        </mxCell>
        <mxCell id="OO_mj3jUhyiRYIfF3Iy0-18" value="Permanent_Address" style="ellipse;whiteSpace=wrap;html=1;align=center;" parent="1" vertex="1">
          <mxGeometry x="-610" y="630" width="120" height="50" as="geometry" />
        </mxCell>
        <mxCell id="OO_mj3jUhyiRYIfF3Iy0-19" value="Std_Name" style="ellipse;whiteSpace=wrap;html=1;align=center;" parent="1" vertex="1">
          <mxGeometry x="-530" y="505" width="100" height="40" as="geometry" />
        </mxCell>
        <mxCell id="OO_mj3jUhyiRYIfF3Iy0-20" value="Birthday" style="ellipse;whiteSpace=wrap;html=1;align=center;" parent="1" vertex="1">
          <mxGeometry x="-230" y="655" width="100" height="40" as="geometry" />
        </mxCell>
        <mxCell id="OO_mj3jUhyiRYIfF3Iy0-21" style="edgeStyle=orthogonalEdgeStyle;rounded=0;orthogonalLoop=1;jettySize=auto;html=1;exitX=0.5;exitY=0;exitDx=0;exitDy=0;entryX=0.404;entryY=0.938;entryDx=0;entryDy=0;entryPerimeter=0;endArrow=none;startFill=0;" parent="1" source="OO_mj3jUhyiRYIfF3Iy0-8" target="OO_mj3jUhyiRYIfF3Iy0-16" edge="1">
          <mxGeometry relative="1" as="geometry" />
        </mxCell>
        <mxCell id="OO_mj3jUhyiRYIfF3Iy0-30" value="Total_Creds" style="ellipse;whiteSpace=wrap;html=1;align=center;" parent="1" vertex="1">
          <mxGeometry x="-50" y="515" width="100" height="40" as="geometry" />
        </mxCell>
        <mxCell id="OO_mj3jUhyiRYIfF3Iy0-31" value="Practice_Creds" style="ellipse;whiteSpace=wrap;html=1;align=center;" parent="1" vertex="1">
          <mxGeometry x="110" y="705" width="100" height="40" as="geometry" />
        </mxCell>
        <mxCell id="OO_mj3jUhyiRYIfF3Iy0-32" value="Prerequisite_Subject" style="ellipse;whiteSpace=wrap;html=1;align=center;" parent="1" vertex="1">
          <mxGeometry x="215" y="620" width="130" height="50" as="geometry" />
        </mxCell>
        <mxCell id="F-f_jB7JB1qZvQwXc1-d-4" style="edgeStyle=orthogonalEdgeStyle;rounded=0;orthogonalLoop=1;jettySize=auto;html=1;exitX=0.148;exitY=-0.045;exitDx=0;exitDy=0;entryX=1;entryY=1;entryDx=0;entryDy=0;endArrow=none;startFill=0;exitPerimeter=0;" edge="1" parent="1" source="OO_mj3jUhyiRYIfF3Iy0-9" target="F-f_jB7JB1qZvQwXc1-d-2">
          <mxGeometry relative="1" as="geometry" />
        </mxCell>
        <mxCell id="OO_mj3jUhyiRYIfF3Iy0-33" value="Subject_ID" style="ellipse;whiteSpace=wrap;html=1;align=center;" parent="1" vertex="1">
          <mxGeometry x="115" y="495" width="100" height="40" as="geometry" />
        </mxCell>
        <mxCell id="OO_mj3jUhyiRYIfF3Iy0-34" value="Start Date" style="ellipse;whiteSpace=wrap;html=1;align=center;" parent="1" vertex="1">
          <mxGeometry y="315" width="100" height="40" as="geometry" />
        </mxCell>
        <mxCell id="OO_mj3jUhyiRYIfF3Iy0-35" value="Subject_Name" style="ellipse;whiteSpace=wrap;html=1;align=center;" parent="1" vertex="1">
          <mxGeometry x="185" y="550" width="100" height="40" as="geometry" />
        </mxCell>
        <mxCell id="OO_mj3jUhyiRYIfF3Iy0-36" value="Class_ID" style="ellipse;whiteSpace=wrap;html=1;align=center;" parent="1" vertex="1">
          <mxGeometry x="-700" y="805" width="100" height="40" as="geometry" />
        </mxCell>
        <mxCell id="OO_mj3jUhyiRYIfF3Iy0-37" value="Coursework_Program" style="ellipse;whiteSpace=wrap;html=1;align=center;" parent="1" vertex="1">
          <mxGeometry x="-670" y="880" width="130" height="50" as="geometry" />
        </mxCell>
        <mxCell id="OO_mj3jUhyiRYIfF3Iy0-38" value="Academic_Supervisor" style="ellipse;whiteSpace=wrap;html=1;align=center;" parent="1" vertex="1">
          <mxGeometry x="-470" y="940" width="140" height="50" as="geometry" />
        </mxCell>
        <mxCell id="OO_mj3jUhyiRYIfF3Iy0-39" value="Training_Year" style="ellipse;whiteSpace=wrap;html=1;align=center;" parent="1" vertex="1">
          <mxGeometry x="400" y="770" width="130" height="50" as="geometry" />
        </mxCell>
        <mxCell id="OO_mj3jUhyiRYIfF3Iy0-40" value="Section_Number" style="ellipse;whiteSpace=wrap;html=1;align=center;" parent="1" vertex="1">
          <mxGeometry x="580" y="810" width="130" height="50" as="geometry" />
        </mxCell>
        <mxCell id="OO_mj3jUhyiRYIfF3Iy0-41" value="Section_ID" style="ellipse;whiteSpace=wrap;html=1;align=center;" parent="1" vertex="1">
          <mxGeometry x="600" y="625" width="130" height="50" as="geometry" />
        </mxCell>
        <mxCell id="OO_mj3jUhyiRYIfF3Iy0-42" value="Semester" style="ellipse;whiteSpace=wrap;html=1;align=center;" parent="1" vertex="1">
          <mxGeometry x="390" y="665" width="130" height="50" as="geometry" />
        </mxCell>
        <mxCell id="OO_mj3jUhyiRYIfF3Iy0-50" value="Grade_Theory" style="ellipse;whiteSpace=wrap;html=1;align=center;" parent="1" vertex="1">
          <mxGeometry x="-40" y="990" width="130" height="50" as="geometry" />
        </mxCell>
        <mxCell id="OO_mj3jUhyiRYIfF3Iy0-51" value="Total_Score" style="ellipse;whiteSpace=wrap;html=1;align=center;" parent="1" vertex="1">
          <mxGeometry x="50" y="810" width="130" height="50" as="geometry" />
        </mxCell>
        <mxCell id="OO_mj3jUhyiRYIfF3Iy0-52" value="Student_ID" style="ellipse;whiteSpace=wrap;html=1;align=center;" parent="1" vertex="1">
          <mxGeometry x="190" y="850" width="130" height="50" as="geometry" />
        </mxCell>
        <mxCell id="OO_mj3jUhyiRYIfF3Iy0-53" value="Practice_Grade" style="ellipse;whiteSpace=wrap;html=1;align=center;" parent="1" vertex="1">
          <mxGeometry x="125" y="990" width="130" height="50" as="geometry" />
        </mxCell>
        <mxCell id="OO_mj3jUhyiRYIfF3Iy0-54" value="Report_ID" style="ellipse;whiteSpace=wrap;html=1;align=center;" parent="1" vertex="1">
          <mxGeometry x="-65" y="880" width="130" height="50" as="geometry" />
        </mxCell>
        <mxCell id="OO_mj3jUhyiRYIfF3Iy0-55" value="Subject_ID" style="ellipse;whiteSpace=wrap;html=1;align=center;" parent="1" vertex="1">
          <mxGeometry x="260" y="960" width="130" height="50" as="geometry" />
        </mxCell>
        <mxCell id="OO_mj3jUhyiRYIfF3Iy0-59" style="edgeStyle=orthogonalEdgeStyle;rounded=0;orthogonalLoop=1;jettySize=auto;html=1;exitX=1;exitY=0.25;exitDx=0;exitDy=0;entryX=0.23;entryY=0.92;entryDx=0;entryDy=0;entryPerimeter=0;endArrow=none;startFill=0;" parent="1" source="b0n5neDOJTrzBqEPWJX2-1" target="b0n5neDOJTrzBqEPWJX2-8" edge="1">
          <mxGeometry relative="1" as="geometry" />
        </mxCell>
        <mxCell id="OO_mj3jUhyiRYIfF3Iy0-66" style="edgeStyle=orthogonalEdgeStyle;rounded=0;orthogonalLoop=1;jettySize=auto;html=1;exitX=0.25;exitY=1;exitDx=0;exitDy=0;entryX=0.703;entryY=0.032;entryDx=0;entryDy=0;entryPerimeter=0;endArrow=none;startFill=0;" parent="1" source="b0n5neDOJTrzBqEPWJX2-2" target="b0n5neDOJTrzBqEPWJX2-13" edge="1">
          <mxGeometry relative="1" as="geometry" />
        </mxCell>
        <mxCell id="OO_mj3jUhyiRYIfF3Iy0-75" style="edgeStyle=orthogonalEdgeStyle;rounded=0;orthogonalLoop=1;jettySize=auto;html=1;exitX=0.25;exitY=0;exitDx=0;exitDy=0;entryX=0.654;entryY=1;entryDx=0;entryDy=0;entryPerimeter=0;endArrow=none;startFill=0;" parent="1" source="OO_mj3jUhyiRYIfF3Iy0-9" target="OO_mj3jUhyiRYIfF3Iy0-33" edge="1">
          <mxGeometry relative="1" as="geometry" />
        </mxCell>
        <mxCell id="OO_mj3jUhyiRYIfF3Iy0-77" style="edgeStyle=orthogonalEdgeStyle;rounded=0;orthogonalLoop=1;jettySize=auto;html=1;exitX=0;exitY=0.75;exitDx=0;exitDy=0;entryX=0.987;entryY=0.286;entryDx=0;entryDy=0;entryPerimeter=0;endArrow=none;startFill=0;" parent="1" source="OO_mj3jUhyiRYIfF3Iy0-9" target="b0n5neDOJTrzBqEPWJX2-12" edge="1">
          <mxGeometry relative="1" as="geometry" />
        </mxCell>
        <mxCell id="OO_mj3jUhyiRYIfF3Iy0-82" style="edgeStyle=orthogonalEdgeStyle;rounded=0;orthogonalLoop=1;jettySize=auto;html=1;exitX=0.75;exitY=1;exitDx=0;exitDy=0;entryX=0.434;entryY=0.089;entryDx=0;entryDy=0;entryPerimeter=0;endArrow=none;endFill=1;startFill=0;" parent="1" source="OO_mj3jUhyiRYIfF3Iy0-11" target="OO_mj3jUhyiRYIfF3Iy0-53" edge="1">
          <mxGeometry relative="1" as="geometry" />
        </mxCell>
        <mxCell id="OO_mj3jUhyiRYIfF3Iy0-83" style="edgeStyle=orthogonalEdgeStyle;rounded=0;orthogonalLoop=1;jettySize=auto;html=1;exitX=0.25;exitY=1;exitDx=0;exitDy=0;entryX=1;entryY=0;entryDx=0;entryDy=0;endArrow=none;endFill=1;startFill=0;" parent="1" source="OO_mj3jUhyiRYIfF3Iy0-11" target="OO_mj3jUhyiRYIfF3Iy0-50" edge="1">
          <mxGeometry relative="1" as="geometry" />
        </mxCell>
        <mxCell id="OO_mj3jUhyiRYIfF3Iy0-89" style="edgeStyle=orthogonalEdgeStyle;rounded=0;orthogonalLoop=1;jettySize=auto;html=1;exitX=0;exitY=1;exitDx=0;exitDy=0;entryX=0.75;entryY=0;entryDx=0;entryDy=0;endArrow=none;endFill=0;startFill=0;" parent="1" source="OO_mj3jUhyiRYIfF3Iy0-85" target="OO_mj3jUhyiRYIfF3Iy0-10" edge="1">
          <mxGeometry relative="1" as="geometry" />
        </mxCell>
        <mxCell id="OO_mj3jUhyiRYIfF3Iy0-85" value="Enroll" style="shape=rhombus;perimeter=rhombusPerimeter;whiteSpace=wrap;html=1;align=center;" parent="1" vertex="1">
          <mxGeometry x="-390" y="715" width="120" height="60" as="geometry" />
        </mxCell>
        <mxCell id="F-f_jB7JB1qZvQwXc1-d-10" style="edgeStyle=orthogonalEdgeStyle;rounded=0;orthogonalLoop=1;jettySize=auto;html=1;exitX=0;exitY=0;exitDx=0;exitDy=0;entryX=0.5;entryY=1;entryDx=0;entryDy=0;endArrow=none;startFill=0;" edge="1" parent="1" source="F-f_jB7JB1qZvQwXc1-d-2" target="F-f_jB7JB1qZvQwXc1-d-9">
          <mxGeometry relative="1" as="geometry" />
        </mxCell>
        <mxCell id="F-f_jB7JB1qZvQwXc1-d-11" style="edgeStyle=orthogonalEdgeStyle;rounded=0;orthogonalLoop=1;jettySize=auto;html=1;exitX=1;exitY=0;exitDx=0;exitDy=0;entryX=0;entryY=1;entryDx=0;entryDy=0;endArrow=none;startFill=0;" edge="1" parent="1" source="F-f_jB7JB1qZvQwXc1-d-2" target="F-f_jB7JB1qZvQwXc1-d-8">
          <mxGeometry relative="1" as="geometry" />
        </mxCell>
        <mxCell id="F-f_jB7JB1qZvQwXc1-d-2" value="Teaches" style="shape=rhombus;perimeter=rhombusPerimeter;whiteSpace=wrap;html=1;align=center;" vertex="1" parent="1">
          <mxGeometry y="455" width="110" height="60" as="geometry" />
        </mxCell>
        <mxCell id="F-f_jB7JB1qZvQwXc1-d-3" style="edgeStyle=orthogonalEdgeStyle;rounded=0;orthogonalLoop=1;jettySize=auto;html=1;exitX=0.75;exitY=1;exitDx=0;exitDy=0;entryX=0;entryY=0.5;entryDx=0;entryDy=0;endArrow=none;startFill=0;" edge="1" parent="1" source="b0n5neDOJTrzBqEPWJX2-2" target="F-f_jB7JB1qZvQwXc1-d-2">
          <mxGeometry relative="1" as="geometry" />
        </mxCell>
        <mxCell id="F-f_jB7JB1qZvQwXc1-d-8" value="End_Date" style="ellipse;whiteSpace=wrap;html=1;align=center;" vertex="1" parent="1">
          <mxGeometry x="70" y="415" width="100" height="40" as="geometry" />
        </mxCell>
        <mxCell id="F-f_jB7JB1qZvQwXc1-d-9" value="Start_Date" style="ellipse;whiteSpace=wrap;html=1;align=center;" vertex="1" parent="1">
          <mxGeometry x="-40" y="400" width="100" height="40" as="geometry" />
        </mxCell>
      </root>
    </mxGraphModel>
  </diagram>
</mxfile>
